<svg xmlns="http://www.w3.org/2000/svg" version="1.1" xmlns:xlink="http://www.w3.org/1999/xlink" xmlns:svgjs="http://svgjs.dev/svgjs" width="2000" height="679" viewBox="0 0 2000 679"><g transform="matrix(1,0,0,1,0.3398876404492057,1.116452167586715)"><svg viewBox="0 0 356 121" data-background-color="#ffffff" preserveAspectRatio="xMidYMid meet" height="679" width="2000" xmlns="http://www.w3.org/2000/svg" xmlns:xlink="http://www.w3.org/1999/xlink"><g id="tight-bounds" transform="matrix(1,0,0,1,-0.06049999999996203,-0.1989500801963402)"><svg viewBox="0 0 356.12052 121.39777004244972" height="121.39777004244972" width="356.12052"><g><svg viewBox="0 0 356.12052 121.39777004244972" height="121.39777004244972" width="356.12052"><g transform="matrix(1,0,0,1,0,50.33090547383104)"><svg viewBox="0 0 356.12052 71.06686456861868" height="71.06686456861868" width="356.12052"><g><path d="M0 71.067v-71.067h356.121v71.067z" fill="#e6b17e" stroke="transparent" stroke-width="0" rx="0%" data-fill-palette-color="tertiary"></path><path d="M3.283 67.784v-64.501h349.554v64.501z" fill="#ffffff" stroke="transparent" stroke-width="0" rx="0%" data-fill-palette-color="quaternary"></path><path d="M9.85 61.217v-51.367h336.421v51.367z" fill="#e6b17e" stroke="transparent" stroke-width="0" data-fill-palette-color="tertiary"></path></g><g transform="matrix(1,0,0,1,19.69974,19.69974)" id="textblocktransform"><svg viewBox="0 0 316.72104 31.66738456861869" height="31.66738456861869" width="316.72104" id="textblock"><g><svg viewBox="0 0 316.72104 31.66738456861869" height="31.66738456861869" width="316.72104"><g transform="matrix(1,0,0,1,0,0)"><svg width="316.72104" viewBox="-0.25 -32.95000076293945 335.5299987792969 33.54999923706055" height="31.66738456861869" data-palette-color="#ffffff"><path d="M17.05 0.3L16.65-0.15 16.95-4.35Q18.65-4.55 19.23-4.67 19.8-4.8 19.98-5.08 20.15-5.35 20.15-6.05L20.15-6.05 20.05-6.95 19.75-8.9 15.9-9Q15.15-9 11.9-8.75L11.9-8.75 11.4-6.55Q11.25-5.75 11.25-5.45L11.25-5.45Q11.25-4.8 11.53-4.63 11.8-4.45 12.8-4.45L12.8-4.45 14.1-4.45 14.5-3.95 14.1 0.2Q13.35 0.15 11.13 0.1 8.9 0.05 6.4 0.05L6.4 0.05-0.25 0.1 0.1-4.25Q1.9-4.7 2.65-7L2.65-7 10.6-32.1 23.75-32.9 24.5-32.3Q25.25-29.2 27.55-20.13 29.85-11.05 30.75-7.65L30.75-7.65Q31.2-5.95 31.88-5.18 32.55-4.4 33.7-4.3L33.7-4.3 34.05-3.8 33.65 0.15Q32.95 0.15 30.9 0.1 28.85 0.05 26.6 0.05L26.6 0.05Q23.65 0.05 20.75 0.15 17.85 0.25 17.05 0.3L17.05 0.3ZM13.5-15.05L16.05-15.05Q16.85-15.05 18.65-15.15L18.65-15.15 16.95-23.9 15.85-23.9 13.5-15.05ZM57.55 0.6Q54.05-5.2 51.07-9.85 48.1-14.5 47.3-15.75L47.3-15.75 46.55-15.75 46.7-6.85Q46.75-5.4 47.15-4.85 47.55-4.3 48.65-4.3L48.65-4.3Q49.15-4.3 49.65-4.38 50.15-4.45 50.35-4.5L50.35-4.5 50.8-4.05 50.25 0.2Q49.35 0.15 47 0.08 44.65 0 42.55 0L42.55 0Q40.4 0 37.97 0.18 35.55 0.35 34.85 0.4L34.85 0.4 35.35-4.1Q36.8-4.3 37.47-5.03 38.15-5.75 38.2-7.25L38.2-7.25 38.8-24.7Q38.8-25.9 38.52-26.5 38.25-27.1 37.47-27.38 36.7-27.65 35.05-27.85L35.05-27.85 34.45-28.55 34.75-32.6Q35.4-32.55 37.62-32.45 39.85-32.35 42.15-32.35L42.15-32.35Q43.85-32.35 45.9-32.43 47.95-32.5 48.55-32.55L48.55-32.55Q51.35-27.5 54.75-22.03 58.15-16.55 58.15-16.65L58.15-16.65 58.9-16.65 58.7-25.8Q58.65-27.05 58.3-27.5 57.95-27.95 57.05-27.95L57.05-27.95 55.5-27.95 55.25-28.5 55.5-32.55Q56.4-32.5 58.85-32.43 61.3-32.35 63.8-32.35L63.8-32.35Q66.05-32.35 68.05-32.4 70.05-32.45 70.75-32.5L70.75-32.5 70.5-28Q68.9-27.8 68.27-27.1 67.65-26.4 67.6-24.85L67.6-24.85 66.95 0 57.55 0.6ZM94.5 0.6Q91-5.2 88.02-9.85 85.05-14.5 84.25-15.75L84.25-15.75 83.5-15.75 83.65-6.85Q83.7-5.4 84.09-4.85 84.5-4.3 85.59-4.3L85.59-4.3Q86.09-4.3 86.59-4.38 87.09-4.45 87.3-4.5L87.3-4.5 87.75-4.05 87.2 0.2Q86.3 0.15 83.95 0.08 81.59 0 79.5 0L79.5 0Q77.34 0 74.92 0.18 72.5 0.35 71.8 0.4L71.8 0.4 72.3-4.1Q73.75-4.3 74.42-5.03 75.09-5.75 75.15-7.25L75.15-7.25 75.75-24.7Q75.75-25.9 75.47-26.5 75.2-27.1 74.42-27.38 73.65-27.65 72-27.85L72-27.85 71.4-28.55 71.7-32.6Q72.34-32.55 74.57-32.45 76.8-32.35 79.09-32.35L79.09-32.35Q80.8-32.35 82.84-32.43 84.9-32.5 85.5-32.55L85.5-32.55Q88.3-27.5 91.7-22.03 95.09-16.55 95.09-16.65L95.09-16.65 95.84-16.65 95.65-25.8Q95.59-27.05 95.25-27.5 94.9-27.95 94-27.95L94-27.95 92.45-27.95 92.2-28.5 92.45-32.55Q93.34-32.5 95.8-32.43 98.25-32.35 100.75-32.35L100.75-32.35Q103-32.35 105-32.4 107-32.45 107.7-32.5L107.7-32.5 107.45-28Q105.84-27.8 105.22-27.1 104.59-26.4 104.55-24.85L104.55-24.85 103.9 0 94.5 0.6ZM123.34 0.6Q116.09 0.6 112.27-3.58 108.44-7.75 108.44-15.6L108.44-15.6Q108.44-24 112.64-28.48 116.84-32.95 124.79-32.95L124.79-32.95Q132.19-32.95 135.94-28.93 139.69-24.9 139.69-17L139.69-17Q139.69-8.55 135.44-3.98 131.19 0.6 123.34 0.6L123.34 0.6ZM124.29-5.7Q126.44-5.7 127.34-7.58 128.24-9.45 128.24-13.85L128.24-13.85Q128.24-18.45 127.82-21.1 127.39-23.75 126.42-24.93 125.44-26.1 123.74-26.1L123.74-26.1Q121.64-26.1 120.77-24.28 119.89-22.45 119.89-18.05L119.89-18.05Q119.89-13.45 120.32-10.78 120.74-8.1 121.69-6.9 122.64-5.7 124.29-5.7L124.29-5.7ZM158.74 0.6Q156.14 0.6 153.94 0.13 151.74-0.35 150.31-0.93 148.89-1.5 148.89-1.55L148.89-1.55 148.29-2.45Q148.44-3.25 148.84-5.95 149.24-8.65 149.34-10.7L149.34-10.7 155.64-11.15Q155.64-8.5 156.74-7.28 157.84-6.05 160.04-6.05L160.04-6.05Q161.59-6.05 162.46-6.6 163.34-7.15 163.34-8.1L163.34-8.1Q163.34-9.3 162.09-10.13 160.84-10.95 158.19-12.05L158.19-12.05 156.19-12.95Q152.69-14.5 150.61-16.63 148.54-18.75 148.54-22.25L148.54-22.25Q148.54-25.45 150.46-27.88 152.39-30.3 155.86-31.63 159.34-32.95 163.94-32.95L163.94-32.95Q166.39-32.95 168.51-32.65 170.64-32.35 171.91-32 173.19-31.65 173.49-31.55L173.49-31.55 174.09-30.45Q173.94-29.75 173.46-27.15 172.99-24.55 172.74-21.75L172.74-21.75 166.94-21.35 166.34-21.75 166.34-22.55Q166.34-26.05 162.69-26.05L162.69-26.05Q161.29-26.05 160.41-25.43 159.54-24.8 159.54-23.8L159.54-23.8Q159.54-22.55 160.76-21.78 161.99-21 164.79-19.8L164.79-19.8 165.84-19.35Q168.39-18.3 170.19-17.18 171.99-16.05 173.19-14.25 174.39-12.45 174.39-9.85L174.39-9.85Q174.39-6.6 172.49-4.25 170.59-1.9 167.06-0.65 163.54 0.6 158.74 0.6L158.74 0.6ZM179.69 0.45L180.09-4.15Q182.19-4.35 183.21-4.73 184.24-5.1 184.63-5.95 185.03-6.8 185.03-8.4L185.03-8.4 185.03-26.3Q183.63-26.3 182.96-25.8 182.28-25.3 181.96-23.9 181.63-22.5 181.38-19.5L181.38-19.5 175.19-19.1Q175.49-24.95 175.59-32.2L175.59-32.2 176.24-32.9 182.19-32.35 197.88-32.35 203.94-32.9 204.59-32.2Q204.69-23.75 204.84-19.5L204.84-19.5 198.63-19.1Q198.38-22.55 198.09-23.98 197.78-25.4 197.19-25.85 196.59-26.3 195.19-26.3L195.19-26.3Q194.94-17.2 194.94-8L194.94-8Q194.94-6.1 195.51-5.33 196.09-4.55 197.53-4.55L197.53-4.55Q198.44-4.55 200.09-4.7L200.09-4.7 200.34-4.4 199.88 0.3Q193.28 0 189.74 0L189.74 0Q186.44 0 179.69 0.45L179.69 0.45ZM219.78 0.3L219.38-0.15 219.68-4.35Q221.38-4.55 221.96-4.67 222.53-4.8 222.71-5.08 222.88-5.35 222.88-6.05L222.88-6.05 222.78-6.95 222.48-8.9 218.63-9Q217.88-9 214.63-8.75L214.63-8.75 214.13-6.55Q213.98-5.75 213.98-5.45L213.98-5.45Q213.98-4.8 214.26-4.63 214.53-4.45 215.53-4.45L215.53-4.45 216.83-4.45 217.23-3.95 216.83 0.2Q216.08 0.15 213.86 0.1 211.63 0.05 209.13 0.05L209.13 0.05 202.48 0.1 202.83-4.25Q204.63-4.7 205.38-7L205.38-7 213.33-32.1 226.48-32.9 227.23-32.3Q227.98-29.2 230.28-20.13 232.58-11.05 233.48-7.65L233.48-7.65Q233.93-5.95 234.61-5.18 235.28-4.4 236.43-4.3L236.43-4.3 236.78-3.8 236.38 0.15Q235.68 0.15 233.63 0.1 231.58 0.05 229.33 0.05L229.33 0.05Q226.38 0.05 223.48 0.15 220.58 0.25 219.78 0.3L219.78 0.3ZM216.23-15.05L218.78-15.05Q219.58-15.05 221.38-15.15L221.38-15.15 219.68-23.9 218.58-23.9 216.23-15.05ZM277.88-4.45L278.23-4.05 277.78 0.15Q273.73 0 272.33 0L272.33 0Q270.68 0 266.96 0.15 263.23 0.3 262.88 0.4L262.88 0.4 263.48-4.05Q264.88-4.2 265.46-4.75 266.03-5.3 266.03-6.5L266.03-6.5Q266.03-9.1 265.78-18.45L265.78-18.45 265.13-18.45Q265.08-18.25 263.46-13.28 261.83-8.3 259.53 0.1L259.53 0.1 253.48 0.6Q250.98-8.55 249.48-13.43 247.98-18.3 247.93-18.45L247.93-18.45 247.28-18.45Q247.28-17.7 247.18-15.5L247.18-15.5 246.98-6Q246.98-4.3 248.63-4.3L248.63-4.3 249.93-4.4 250.38-4 249.78 0.2Q245.18 0 242.73 0L242.73 0Q241.68 0 239.31 0.18 236.93 0.35 236.93 0.4L236.93 0.4 237.33-4Q238.63-4.15 239.21-4.83 239.78-5.5 240.18-7.35L240.18-7.35Q240.53-10.3 241.26-17.73 241.98-25.15 241.98-25.7L241.98-25.7Q241.98-26.7 241.81-27.08 241.63-27.45 241.06-27.63 240.48-27.8 238.83-28L238.83-28 238.43-28.4 238.93-32.6Q245.08-32.35 246.18-32.35L246.18-32.35Q249.23-32.35 253.73-32.55L253.73-32.55Q254.38-29.15 255.51-24.55 256.63-19.95 257.63-16.3L257.63-16.3 258.23-16.3Q260.88-25.2 262.63-32.35L262.63-32.35Q264.63-32.35 265.63-32.3L265.63-32.3 268.63-32.25Q269.68-32.25 271.68-32.35L271.68-32.35 276.38-32.65 276.73-32.45 276.33-28.15Q274.28-28.05 273.63-27.55 272.98-27.05 272.98-25.55L272.98-25.55Q272.98-23.35 273.33-17.82 273.68-12.3 274.08-8.75L274.08-8.75Q274.28-6.2 274.78-5.28 275.28-4.35 276.43-4.35L276.43-4.35Q277.18-4.35 277.88-4.45L277.88-4.45ZM278.93 0.45L279.38-4.15Q281.23-4.45 281.93-5.38 282.63-6.3 282.63-8.4L282.63-8.4 282.63-25.25Q282.63-26.8 282.35-27.38 282.08-27.95 281.33-27.95L281.33-27.95Q280.73-27.95 280.23-27.9 279.73-27.85 279.58-27.85L279.58-27.85 279.08-28.45 279.58-32.35 286.73-32.35Q288.13-32.35 291.38-32.48 294.63-32.6 295.73-32.65L295.73-32.65Q303.63-32.65 306.45-29.5 309.28-26.35 309.28-22.25L309.28-22.25Q309.28-19.15 307.55-16.4 305.83-13.65 302.95-12.03 300.08-10.4 296.78-10.4L296.78-10.4 292.48-10.4 292.48-8Q292.48-5.9 292.98-5.15 293.48-4.4 294.98-4.4L294.98-4.4Q295.53-4.4 296-4.45 296.48-4.5 296.63-4.5L296.63-4.5 296.88-4.1 296.38 0.2Q295.38 0.15 292.88 0.08 290.38 0 288.23 0L288.23 0Q286.78 0 283.43 0.2 280.08 0.4 278.93 0.45L278.93 0.45ZM296.03-16.05Q297.53-16.6 298.25-17.98 298.98-19.35 298.98-21.75L298.98-21.75Q298.98-24.2 297.73-25.3 296.48-26.4 293.83-26.4L293.83-26.4Q293.33-26.4 293.18-26.2 293.03-26 292.98-25.3L292.98-25.3Q292.73-20.8 292.58-16.55L292.58-16.55 296.03-16.05ZM319.63 0.6Q317.03 0.6 314.83 0.13 312.63-0.35 311.2-0.93 309.78-1.5 309.78-1.55L309.78-1.55 309.18-2.45Q309.33-3.25 309.73-5.95 310.13-8.65 310.23-10.7L310.23-10.7 316.53-11.15Q316.53-8.5 317.63-7.28 318.73-6.05 320.93-6.05L320.93-6.05Q322.48-6.05 323.35-6.6 324.23-7.15 324.23-8.1L324.23-8.1Q324.23-9.3 322.98-10.13 321.73-10.95 319.08-12.05L319.08-12.05 317.08-12.95Q313.58-14.5 311.5-16.63 309.43-18.75 309.43-22.25L309.43-22.25Q309.43-25.45 311.35-27.88 313.28-30.3 316.75-31.63 320.23-32.95 324.83-32.95L324.83-32.95Q327.28-32.95 329.4-32.65 331.53-32.35 332.8-32 334.08-31.65 334.38-31.55L334.38-31.55 334.98-30.45Q334.83-29.75 334.35-27.15 333.88-24.55 333.63-21.75L333.63-21.75 327.83-21.35 327.23-21.75 327.23-22.55Q327.23-26.05 323.58-26.05L323.58-26.05Q322.18-26.05 321.3-25.43 320.43-24.8 320.43-23.8L320.43-23.8Q320.43-22.55 321.65-21.78 322.88-21 325.68-19.8L325.68-19.8 326.73-19.35Q329.28-18.3 331.08-17.18 332.88-16.05 334.08-14.25 335.28-12.45 335.28-9.85L335.28-9.85Q335.28-6.6 333.38-4.25 331.48-1.9 327.95-0.65 324.43 0.6 319.63 0.6L319.63 0.6Z" opacity="1" transform="matrix(1,0,0,1,0,0)" fill="#ffffff" class="undefined-text-0" data-fill-palette-color="quaternary" id="text-0"></path></svg></g></svg></g></svg></g></svg></g><g transform="matrix(1,0,0,1,154.1017385682153,0)"><svg viewBox="0 0 47.917042863569385 43.764325473831036" height="43.764325473831036" width="47.917042863569385"><g><svg xmlns="http://www.w3.org/2000/svg" xmlns:xlink="http://www.w3.org/1999/xlink" version="1.1" x="0" y="0" viewBox="3.3329997062683105 7.839010238647461 92.33300018310547 84.33098602294922" enable-background="new 0 0 100 100" xml:space="preserve" height="43.764325473831036" width="47.917042863569385" class="icon-icon-0" data-fill-palette-color="accent" id="icon-0"><g fill="#c56e33" data-fill-palette-color="accent"><path fill-rule="evenodd" clip-rule="evenodd" d="M89.646 78.092H9.355c-3.327 0-6.022-2.697-6.022-6.022 0-1.148 0-1.721 0-2.007 0 0 0-0.099 0-0.243 0-0.58 0-2.164 0-3.771 0 0 7.445 0 18.065 0 21.702 0 19.571-19.238 15.909-31.72-2.405-2.807-3.866-6.445-3.866-10.432 0-8.868 7.19-16.058 16.058-16.058s16.059 7.19 16.059 16.058c0 4.116-1.561 7.856-4.109 10.699-8.059 28.204 16.152 31.454 16.152 31.454 6.053 0 10.993 0 13.988 0 2.596 0 4.077 0 4.077 0s0 2.697 0 6.021C95.667 75.395 92.97 78.092 89.646 78.092zM91.621 88.617c0 1.961-1.615 3.553-3.614 3.553H10.996c-1.996 0-3.626-1.592-3.626-3.553l-0.021-6.512h84.305L91.621 88.617z" fill="#c56e33" data-fill-palette-color="accent"></path></g></svg></g></svg></g><g></g></svg></g><defs></defs></svg><rect width="356.12052" height="121.39777004244972" fill="none" stroke="none" visibility="hidden"></rect></g></svg></g></svg>