<svg xmlns="http://www.w3.org/2000/svg" version="1.1" xmlns:xlink="http://www.w3.org/1999/xlink" xmlns:svgjs="http://svgjs.dev/svgjs" width="128" height="128" viewBox="0 0 128 128"><g transform="matrix(0.8046875,0,0,0.8046875,12.760752631578946,17.03734155487121)"><svg viewBox="0 0 95 87" data-background-color="#ffffff" preserveAspectRatio="xMidYMid meet" height="117" width="128" xmlns="http://www.w3.org/2000/svg" xmlns:xlink="http://www.w3.org/1999/xlink"><g id="tight-bounds" transform="matrix(1,0,0,1,-0.24049999999999727,-0.10308983113814918)"><svg viewBox="0 0 95.481 87.20617966227628" height="87.20617966227628" width="95.481"><g><svg viewBox="0 0 95.481 87.20617966227628" height="87.20617966227628" width="95.481"><g><svg viewBox="0 0 95.481 87.20617966227628" height="87.20617966227628" width="95.481"><g id="textblocktransform"><svg viewBox="0 0 95.481 87.20617966227628" height="87.20617966227628" width="95.481" id="textblock"><g><svg viewBox="0 0 95.481 87.20617966227628" height="87.20617966227628" width="95.481"><g><svg viewBox="0 0 95.481 87.20617966227628" height="87.20617966227628" width="95.481"><g><svg xmlns="http://www.w3.org/2000/svg" xmlns:xlink="http://www.w3.org/1999/xlink" version="1.1" x="0" y="0" viewBox="3.333 7.8389999999999915 92.33300027799687 84.33100000000002" enable-background="new 0 0 100 100" xml:space="preserve" height="87.20617966227628" width="95.481" class="icon-icon-0" data-fill-palette-color="accent" id="icon-0"><g fill="#c56e33" data-fill-palette-color="accent"><path fill-rule="evenodd" clip-rule="evenodd" d="M89.646 78.092H9.355c-3.327 0-6.022-2.697-6.022-6.022 0-1.148 0-1.721 0-2.007 0 0 0-0.099 0-0.243 0-0.58 0-2.164 0-3.771 0 0 7.445 0 18.065 0 21.702 0 19.571-19.238 15.909-31.72-2.405-2.807-3.866-6.445-3.866-10.432 0-8.868 7.19-16.058 16.058-16.058s16.059 7.19 16.059 16.058c0 4.116-1.561 7.856-4.109 10.699-8.059 28.204 16.152 31.454 16.152 31.454 6.053 0 10.993 0 13.988 0 2.596 0 4.077 0 4.077 0s0 2.697 0 6.021C95.667 75.395 92.97 78.092 89.646 78.092zM91.621 88.617c0 1.961-1.615 3.553-3.614 3.553H10.996c-1.996 0-3.626-1.592-3.626-3.553l-0.021-6.512h84.305L91.621 88.617z" fill="#c56e33" data-fill-palette-color="accent"></path></g></svg></g></svg></g></svg></g></svg></g></svg></g><g></g></svg></g><defs></defs></svg><rect width="95.481" height="87.20617966227628" fill="none" stroke="none" visibility="hidden"></rect></g></svg></g></svg>